<?xml version="1.0" encoding="utf-8"?>
<svg xmlns="http://www.w3.org/2000/svg" xmlns:xlink="http://www.w3.org/1999/xlink" style="margin: auto; background: none; display: block; shape-rendering: auto;" width="187px" height="187px" viewBox="0 0 100 100" preserveAspectRatio="xMidYMid">
<g transform="translate(50 50)">
<g>
<animateTransform attributeName="transform" type="rotate" values="0;32.72727272727273" keyTimes="0;1" dur="0.2s" repeatCount="indefinite"></animateTransform><path d="M27.636027210870957 -4.5 L33.63602721087096 -4.5 L33.63602721087096 4.5 L27.636027210870957 4.5 A28 28 0 0 1 25.681789203114036 11.155523444770099 L25.681789203114036 11.155523444770099 L30.729310400101124 14.399368349503684 L25.86354304300075 21.97065014498431 L20.816021846013662 18.726805240250727 A28 28 0 0 1 15.573764582219777 23.269247016987826 L15.573764582219777 23.269247016987826 L18.066254660231095 28.727038989114938 L9.87956670204043 32.46577410613192 L7.3870766240291115 27.007982134004806 A28 28 0 0 1 0.521179745432996 27.995149073954767 L0.521179745432996 27.995149073954767 L-0.33270928420671386 33.934077725240364 L-9.241102261135113 32.6532441807808 L-8.387213231495403 26.714315529495202 A28 28 0 0 1 -14.69687597804866 23.83278910421221 L-14.69687597804866 23.83278910421221 L-18.62604038172037 28.36728655033776 L-25.427786550908696 22.473539944830193 L-21.498622147236986 17.939042498704644 A28 28 0 0 1 -25.248777421663306 12.103686988323238 L-25.248777421663306 12.103686988323238 L-31.00573526335029 13.794082329371816 L-33.54132827492316 5.158645566841336 L-27.784370433236173 3.4682502257927577 A28 28 0 0 1 -27.784370433236173 -3.468250225792751 L-27.784370433236173 -3.468250225792751 L-33.54132827492316 -5.158645566841328 L-31.005735263350296 -13.79408232937181 L-25.24877742166331 -12.103686988323233 A28 28 0 0 1 -21.49862214723699 -17.939042498704637 L-21.49862214723699 -17.939042498704637 L-25.427786550908703 -22.473539944830186 L-18.626040381720387 -28.367286550337745 L-14.696875978048675 -23.8327891042122 A28 28 0 0 1 -8.387213231495409 -26.7143155294952 L-8.387213231495409 -26.7143155294952 L-9.24110226113512 -32.653244180780796 L-0.3327092842067222 -33.934077725240364 L0.5211797454329892 -27.995149073954767 A28 28 0 0 1 7.387076624029099 -27.007982134004806 L7.387076624029099 -27.007982134004806 L9.879566702040416 -32.46577410613192 L18.06625466023109 -28.72703898911494 L15.573764582219772 -23.26924701698783 A28 28 0 0 1 20.816021846013662 -18.726805240250727 L20.816021846013662 -18.726805240250727 L25.86354304300075 -21.97065014498431 L30.729310400101124 -14.399368349503678 L25.681789203114036 -11.155523444770093 A28 28 0 0 1 27.636027210870957 -4.500000000000009 M0 -11A11 11 0 1 0 0 11 A11 11 0 1 0 0 -11" fill="#1d3f72"></path></g></g>
<!-- [ldio] generated by https://loading.io/ --></svg>